<svg width="15" height="15" viewBox="0 0 15 15" fill="none" xmlns="http://www.w3.org/2000/svg">
<path d="M7.37641 10.4754C8.16386 10.4754 8.91905 10.1625 9.47586 9.60574C10.0327 9.04893 10.3455 8.29374 10.3455 7.5063C10.3455 6.71885 10.0327 5.96366 9.47586 5.40685C8.91905 4.85004 8.16386 4.53723 7.37641 4.53723C6.58897 4.53723 5.83377 4.85004 5.27697 5.40685C4.72016 5.96366 4.40735 6.71885 4.40735 7.5063C4.40735 8.29374 4.72016 9.04893 5.27697 9.60574C5.83377 10.1625 6.58897 10.4754 7.37641 10.4754Z" stroke="white" stroke-width="1.1134" stroke-linecap="round" stroke-linejoin="round"/>
<path d="M0.696045 10.4753V4.53714C0.696045 3.55283 1.08706 2.60884 1.78307 1.91283C2.47908 1.21682 3.42307 0.825806 4.40737 0.825806H10.3455C11.3298 0.825806 12.2738 1.21682 12.9698 1.91283C13.6658 2.60884 14.0568 3.55283 14.0568 4.53714V10.4753C14.0568 11.4596 13.6658 12.4036 12.9698 13.0996C12.2738 13.7956 11.3298 14.1866 10.3455 14.1866H4.40737C3.42307 14.1866 2.47908 13.7956 1.78307 13.0996C1.08706 12.4036 0.696045 11.4596 0.696045 10.4753Z" stroke="white" stroke-width="1.1134"/>
<path d="M11.4589 3.43295L11.468 3.42297" stroke="white" stroke-width="1.1134" stroke-linecap="round" stroke-linejoin="round"/>
</svg>
