<svg width="15" height="15" viewBox="0 0 15 15" fill="none" xmlns="http://www.w3.org/2000/svg">
<path d="M13.2088 0.218506C13.6384 0.218506 14.0503 0.38913 14.354 0.692843C14.6577 0.996556 14.8283 1.40848 14.8283 1.838V13.1744C14.8283 13.6039 14.6577 14.0159 14.354 14.3196C14.0503 14.6233 13.6384 14.7939 13.2088 14.7939H1.87242C1.4429 14.7939 1.03098 14.6233 0.727267 14.3196C0.423554 14.0159 0.25293 13.6039 0.25293 13.1744V1.838C0.25293 1.40848 0.423554 0.996556 0.727267 0.692843C1.03098 0.38913 1.4429 0.218506 1.87242 0.218506H13.2088ZM12.804 12.7696V8.4779C12.804 7.77779 12.5259 7.10636 12.0308 6.6113C11.5358 6.11625 10.8643 5.83813 10.1642 5.83813C9.47592 5.83813 8.67428 6.2592 8.2856 6.8908V5.99199H6.02641V12.7696H8.2856V8.77751C8.2856 8.154 8.78764 7.64387 9.41114 7.64387C9.7118 7.64387 10.0002 7.7633 10.2127 7.9759C10.4253 8.1885 10.5448 8.47685 10.5448 8.77751V12.7696H12.804ZM3.39474 4.72069C3.75553 4.72069 4.10155 4.57736 4.35667 4.32224C4.61179 4.06712 4.75511 3.72111 4.75511 3.36032C4.75511 2.60725 4.1478 1.99185 3.39474 1.99185C3.0318 1.99185 2.68372 2.13602 2.42709 2.39266C2.17045 2.6493 2.02627 2.99738 2.02627 3.36032C2.02627 4.11338 2.64168 4.72069 3.39474 4.72069ZM4.52029 12.7696V5.99199H2.27729V12.7696H4.52029Z" fill="white"/>
</svg>
